<svg xmlns="http://www.w3.org/2000/svg" width="1254" height="1254" viewBox="0 0 1254 1254" role="img" aria-label="Fuzzmark icon">
  <rect x="1" y="1" width="1252" height="1252" rx="129" fill="#021442"/>
  <g fill="#38E1FD">
    <path d="M 307 427 L 305 428 L 303 428 L 301 429 L 299 430 L 297 431 L 295 432 L 293 433 L 291 434 L 289 436 L 287 438 L 285 440 L 283 442 L 281 444 L 279 446 L 277 448 L 275 450 L 273 452 L 271 454 L 269 456 L 267 458 L 265 460 L 263 462 L 261 464 L 259 466 L 257 468 L 255 469 L 253 471 L 251 473 L 249 475 L 247 477 L 245 479 L 243 481 L 241 483 L 239 485 L 237 487 L 235 489 L 233 491 L 231 493 L 229 495 L 227 497 L 225 499 L 223 501 L 221 503 L 219 505 L 217 507 L 215 509 L 213 511 L 211 513 L 209 515 L 207 517 L 205 519 L 203 521 L 201 523 L 199 525 L 197 527 L 195 529 L 193 531 L 191 533 L 189 535 L 187 537 L 186 538 L 184 540 L 182 541 L 181 543 L 179 544 L 177 546 L 175 548 L 173 550 L 171 552 L 169 554 L 167 556 L 165 558 L 163 560 L 161 562 L 159 564 L 157 566 L 155 568 L 153 570 L 151 572 L 149 574 L 147 576 L 145 578 L 143 580 L 141 582 L 139 584 L 137 586 L 135 588 L 133 590 L 131 592 L 129 594 L 127 596 L 125 598 L 123 600 L 121 602 L 119 604 L 118 606 L 116 608 L 115 610 L 114 612 L 113 614 L 112 616 L 111 618 L 111 620 L 110 622 L 109 624 L 109 626 L 108 628 L 108 630 L 108 632 L 107 634 L 107 636 L 107 638 L 107 640 L 107 642 L 107 644 L 107 646 L 108 648 L 108 650 L 108 652 L 108 654 L 108 656 L 109 658 L 110 660 L 110 662 L 111 664 L 112 666 L 112 668 L 113 670 L 114 672 L 116 674 L 117 676 L 118 678 L 120 680 L 122 682 L 124 684 L 126 686 L 128 688 L 130 690 L 132 692 L 134 694 L 136 695 L 138 697 L 140 699 L 142 701 L 144 703 L 146 705 L 148 707 L 150 709 L 152 711 L 154 713 L 156 715 L 158 717 L 160 718 L 162 720 L 164 722 L 166 724 L 168 726 L 170 728 L 172 730 L 174 732 L 176 734 L 178 736 L 180 738 L 182 740 L 184 742 L 186 744 L 188 746 L 190 748 L 192 750 L 194 752 L 196 754 L 198 755 L 200 757 L 202 759 L 204 761 L 206 763 L 208 765 L 210 767 L 212 769 L 214 771 L 216 773 L 218 775 L 220 777 L 222 779 L 224 781 L 226 783 L 228 785 L 230 787 L 232 789 L 234 790 L 235 792 L 237 793 L 239 795 L 241 797 L 243 799 L 245 801 L 247 803 L 249 805 L 251 807 L 253 809 L 255 811 L 257 813 L 259 815 L 261 817 L 263 819 L 265 821 L 267 823 L 269 825 L 271 827 L 273 828 L 275 830 L 277 832 L 279 834 L 281 836 L 283 838 L 285 840 L 287 842 L 289 844 L 291 846 L 293 847 L 295 848 L 297 850 L 299 851 L 301 851 L 303 852 L 305 853 L 307 853 L 309 853 L 311 853 L 313 853 L 315 853 L 317 853 L 319 853 L 321 852 L 323 851 L 325 850 L 327 849 L 329 848 L 331 847 L 333 845 L 335 843 L 337 841 L 339 839 L 341 837 L 343 835 L 345 833 L 346 831 L 348 830 L 349 828 L 351 827 L 353 825 L 354 823 L 355 822 L 357 820 L 358 818 L 359 816 L 360 814 L 361 812 L 361 810 L 362 808 L 362 806 L 362 804 L 362 802 L 362 800 L 362 798 L 362 796 L 361 794 L 361 792 L 360 790 L 359 788 L 358 786 L 357 784 L 356 782 L 354 780 L 352 778 L 350 776 L 348 774 L 346 772 L 344 770 L 342 768 L 340 766 L 338 764 L 336 762 L 334 760 L 332 758 L 330 756 L 328 754 L 326 752 L 324 750 L 322 748 L 320 746 L 318 744 L 316 742 L 314 740 L 312 738 L 310 736 L 308 734 L 306 732 L 304 730 L 302 728 L 300 726 L 298 724 L 296 722 L 294 720 L 292 718 L 290 716 L 288 714 L 286 712 L 284 710 L 282 708 L 280 706 L 278 704 L 276 702 L 274 700 L 272 698 L 270 697 L 269 695 L 267 694 L 266 692 L 264 691 L 262 689 L 260 687 L 258 685 L 256 683 L 254 681 L 252 679 L 250 677 L 248 675 L 246 673 L 244 671 L 242 669 L 240 667 L 238 665 L 236 663 L 234 661 L 232 659 L 230 657 L 228 655 L 226 653 L 224 651 L 223 649 L 222 647 L 222 645 L 222 643 L 222 641 L 222 639 L 223 637 L 224 635 L 225 633 L 227 631 L 229 629 L 231 627 L 233 625 L 235 623 L 237 621 L 239 619 L 241 617 L 243 615 L 245 613 L 247 611 L 249 609 L 251 607 L 253 605 L 255 603 L 257 601 L 259 599 L 261 597 L 263 595 L 265 593 L 267 591 L 269 589 L 271 587 L 273 585 L 275 583 L 277 581 L 279 579 L 281 577 L 283 575 L 284 573 L 286 571 L 288 570 L 290 568 L 292 566 L 293 564 L 295 563 L 296 561 L 298 559 L 300 557 L 302 555 L 304 553 L 306 551 L 308 549 L 310 547 L 312 545 L 314 543 L 316 541 L 318 539 L 320 537 L 322 535 L 324 533 L 326 531 L 328 529 L 330 527 L 332 525 L 334 523 L 336 521 L 338 519 L 340 517 L 342 515 L 344 513 L 346 511 L 348 509 L 350 507 L 352 505 L 354 503 L 355 501 L 357 499 L 358 497 L 359 495 L 360 493 L 361 491 L 361 489 L 362 487 L 362 485 L 362 483 L 363 481 L 363 479 L 363 477 L 362 475 L 362 473 L 361 471 L 361 469 L 360 467 L 359 465 L 358 463 L 357 461 L 356 459 L 354 457 L 352 455 L 350 453 L 348 451 L 346 449 L 344 447 L 342 445 L 340 443 L 339 441 L 337 439 L 335 437 L 333 435 L 331 434 L 329 432 L 327 431 L 325 430 L 323 429 L 321 429 L 319 428 L 317 428 L 315 427 L 313 427 L 311 427 L 309 427 Z"/>
    <path d="M 593 319 L 591 320 L 589 320 L 587 320 L 585 320 L 583 321 L 581 321 L 579 321 L 577 322 L 575 322 L 573 323 L 571 323 L 569 324 L 567 324 L 565 325 L 563 325 L 561 326 L 559 327 L 557 327 L 555 328 L 553 329 L 551 330 L 549 331 L 547 331 L 545 332 L 543 333 L 541 334 L 539 335 L 537 336 L 535 337 L 533 338 L 531 340 L 529 341 L 527 342 L 525 343 L 523 345 L 521 346 L 519 348 L 517 349 L 515 351 L 513 352 L 511 354 L 509 355 L 507 357 L 505 359 L 503 361 L 501 363 L 499 365 L 497 367 L 496 369 L 494 371 L 492 373 L 491 375 L 489 377 L 488 379 L 486 381 L 485 383 L 483 385 L 482 387 L 481 389 L 480 391 L 478 393 L 477 395 L 476 397 L 475 399 L 474 401 L 473 403 L 472 405 L 471 407 L 471 409 L 470 411 L 469 413 L 468 415 L 467 417 L 467 419 L 466 421 L 465 423 L 465 425 L 464 427 L 464 429 L 463 431 L 463 433 L 462 435 L 462 437 L 462 439 L 461 441 L 461 443 L 461 445 L 460 447 L 460 449 L 460 451 L 460 453 L 460 455 L 459 457 L 459 459 L 459 461 L 459 463 L 459 465 L 459 467 L 459 469 L 459 471 L 459 473 L 459 475 L 459 477 L 459 479 L 459 481 L 459 483 L 459 485 L 459 487 L 459 489 L 459 491 L 459 493 L 459 495 L 459 497 L 459 499 L 459 501 L 459 503 L 459 505 L 459 507 L 459 509 L 459 511 L 459 513 L 459 515 L 459 517 L 459 519 L 459 521 L 459 523 L 459 525 L 459 527 L 459 529 L 459 531 L 459 533 L 459 535 L 459 537 L 459 539 L 459 541 L 459 543 L 459 545 L 459 547 L 459 549 L 459 551 L 459 553 L 459 555 L 459 557 L 459 559 L 459 561 L 459 563 L 459 565 L 459 567 L 459 569 L 459 571 L 459 573 L 459 575 L 459 577 L 459 579 L 459 581 L 459 583 L 459 585 L 459 587 L 459 589 L 459 591 L 459 593 L 459 595 L 459 597 L 459 599 L 459 601 L 459 603 L 459 605 L 459 607 L 459 609 L 459 611 L 459 613 L 459 615 L 459 617 L 459 619 L 459 621 L 459 623 L 459 625 L 459 627 L 459 629 L 459 631 L 459 633 L 459 635 L 459 637 L 459 639 L 459 641 L 459 643 L 459 645 L 459 647 L 459 649 L 459 651 L 459 653 L 459 655 L 459 657 L 459 659 L 459 661 L 459 663 L 459 665 L 459 667 L 459 669 L 459 671 L 459 673 L 459 675 L 459 677 L 459 679 L 459 681 L 459 683 L 459 685 L 459 687 L 459 689 L 459 691 L 459 693 L 459 695 L 459 697 L 459 699 L 459 701 L 459 703 L 459 705 L 459 707 L 459 709 L 459 711 L 459 713 L 459 715 L 459 717 L 459 719 L 459 721 L 459 723 L 459 725 L 459 727 L 459 729 L 459 731 L 459 733 L 459 735 L 459 737 L 459 739 L 459 741 L 459 743 L 459 745 L 459 747 L 459 749 L 459 751 L 459 753 L 459 755 L 459 757 L 459 759 L 459 761 L 459 763 L 459 765 L 459 767 L 459 769 L 459 771 L 459 773 L 459 775 L 459 777 L 459 779 L 459 781 L 459 783 L 459 785 L 459 787 L 459 789 L 459 791 L 459 793 L 459 795 L 459 797 L 459 799 L 459 801 L 459 803 L 459 805 L 459 807 L 459 809 L 459 811 L 459 813 L 459 815 L 459 817 L 459 819 L 459 821 L 459 823 L 459 825 L 459 827 L 459 829 L 459 831 L 459 833 L 459 835 L 459 837 L 459 839 L 459 841 L 459 843 L 459 845 L 459 847 L 459 849 L 459 851 L 459 853 L 459 855 L 459 857 L 459 859 L 459 861 L 459 863 L 459 865 L 459 867 L 459 869 L 459 871 L 459 873 L 459 875 L 459 877 L 459 879 L 459 881 L 459 883 L 459 885 L 459 887 L 459 889 L 459 891 L 459 893 L 459 895 L 459 897 L 459 899 L 459 901 L 459 903 L 459 905 L 459 907 L 459 909 L 459 911 L 459 913 L 459 915 L 459 917 L 459 919 L 459 921 L 459 923 L 459 925 L 459 927 L 459 929 L 459 931 L 459 933 L 459 935 L 459 937 L 459 939 L 459 941 L 459 943 L 459 945 L 459 947 L 459 949 L 459 951 L 459 953 L 459 955 L 459 957 L 459 959 L 459 961 L 459 963 L 459 965 L 459 967 L 459 969 L 459 971 L 459 973 L 459 975 L 460 977 L 460 979 L 461 981 L 462 983 L 464 985 L 466 987 L 468 988 L 470 989 L 472 989 L 474 989 L 476 989 L 478 988 L 480 988 L 482 987 L 484 985 L 486 983 L 488 981 L 490 979 L 492 977 L 494 975 L 496 973 L 498 972 L 500 970 L 502 968 L 504 966 L 506 964 L 508 962 L 510 960 L 512 958 L 514 956 L 516 954 L 518 952 L 520 950 L 522 948 L 524 946 L 526 944 L 528 942 L 530 940 L 532 939 L 534 937 L 536 935 L 538 933 L 540 931 L 542 929 L 544 927 L 546 925 L 548 923 L 550 921 L 552 919 L 554 917 L 556 915 L 558 913 L 560 911 L 562 909 L 564 907 L 566 905 L 568 903 L 570 901 L 571 899 L 573 897 L 574 895 L 575 893 L 576 891 L 576 889 L 577 887 L 578 885 L 578 883 L 579 881 L 579 879 L 579 877 L 579 875 L 579 873 L 580 871 L 580 869 L 580 867 L 580 865 L 580 863 L 580 861 L 580 859 L 580 857 L 580 855 L 580 853 L 580 851 L 580 849 L 580 847 L 580 845 L 580 843 L 580 841 L 580 839 L 580 837 L 580 835 L 580 833 L 580 831 L 580 829 L 580 827 L 580 825 L 580 823 L 580 821 L 580 819 L 580 817 L 580 815 L 580 813 L 580 811 L 580 809 L 580 807 L 580 805 L 580 803 L 580 801 L 580 799 L 580 797 L 580 795 L 580 793 L 580 791 L 580 789 L 580 787 L 580 785 L 580 783 L 580 781 L 580 779 L 580 777 L 580 775 L 580 773 L 580 771 L 580 769 L 580 767 L 580 765 L 580 763 L 580 761 L 580 759 L 580 757 L 580 755 L 580 753 L 580 751 L 580 749 L 580 747 L 580 745 L 580 743 L 580 741 L 580 739 L 580 737 L 580 735 L 580 733 L 580 731 L 580 729 L 580 727 L 580 725 L 580 723 L 580 721 L 580 719 L 580 717 L 580 715 L 580 713 L 580 711 L 580 709 L 580 707 L 580 705 L 580 703 L 580 701 L 580 699 L 581 697 L 582 695 L 584 693 L 586 692 L 588 691 L 590 690 L 592 690 L 594 690 L 596 690 L 598 690 L 600 690 L 602 690 L 604 690 L 606 690 L 608 690 L 610 690 L 612 690 L 614 690 L 616 690 L 618 690 L 620 690 L 622 690 L 624 690 L 626 690 L 628 690 L 630 690 L 632 690 L 634 690 L 636 690 L 638 690 L 640 690 L 642 690 L 644 690 L 646 690 L 648 690 L 650 690 L 652 690 L 654 690 L 656 690 L 658 690 L 660 690 L 662 690 L 664 690 L 666 690 L 668 690 L 670 690 L 672 690 L 674 690 L 676 690 L 678 690 L 680 690 L 682 690 L 684 690 L 686 690 L 688 690 L 690 690 L 692 690 L 694 690 L 696 690 L 698 690 L 700 690 L 702 690 L 704 690 L 706 690 L 708 690 L 710 690 L 712 690 L 714 690 L 716 690 L 718 690 L 720 690 L 722 690 L 724 689 L 726 689 L 728 688 L 730 688 L 732 687 L 734 686 L 736 685 L 738 684 L 740 682 L 742 681 L 744 679 L 745 677 L 747 675 L 748 673 L 750 671 L 751 669 L 753 667 L 754 665 L 756 663 L 757 661 L 759 659 L 760 657 L 762 655 L 763 653 L 765 651 L 766 649 L 768 647 L 770 645 L 771 643 L 773 641 L 774 639 L 776 637 L 777 635 L 779 633 L 780 631 L 782 629 L 783 627 L 785 625 L 786 623 L 788 621 L 789 619 L 791 617 L 792 615 L 794 613 L 796 611 L 797 609 L 799 607 L 800 605 L 802 603 L 803 601 L 805 599 L 806 597 L 808 595 L 809 593 L 811 591 L 812 589 L 814 587 L 815 585 L 816 583 L 816 581 L 817 579 L 817 577 L 817 575 L 816 573 L 815 571 L 814 569 L 812 567 L 810 565 L 808 564 L 806 564 L 804 564 L 802 563 L 800 563 L 798 563 L 796 563 L 794 563 L 792 563 L 790 563 L 788 563 L 786 563 L 784 563 L 782 563 L 780 563 L 778 563 L 776 563 L 774 563 L 772 563 L 770 563 L 768 563 L 766 563 L 764 563 L 762 563 L 760 563 L 758 563 L 756 563 L 754 563 L 752 563 L 750 563 L 748 563 L 746 563 L 744 563 L 742 563 L 740 563 L 738 563 L 736 563 L 734 563 L 732 563 L 730 563 L 728 563 L 726 563 L 724 563 L 722 563 L 720 563 L 718 563 L 716 563 L 714 563 L 712 563 L 710 563 L 708 563 L 706 563 L 704 563 L 702 563 L 700 563 L 698 563 L 696 563 L 694 563 L 692 563 L 690 563 L 688 563 L 686 563 L 684 563 L 682 563 L 680 563 L 678 563 L 676 563 L 674 563 L 672 563 L 670 563 L 668 563 L 666 563 L 664 563 L 662 563 L 660 563 L 658 563 L 656 563 L 654 563 L 652 563 L 650 563 L 648 563 L 646 563 L 644 563 L 642 563 L 640 563 L 638 563 L 636 563 L 634 563 L 632 563 L 630 563 L 628 563 L 626 563 L 624 563 L 622 563 L 620 563 L 618 563 L 616 563 L 614 563 L 612 563 L 610 563 L 608 563 L 606 563 L 604 563 L 602 563 L 600 563 L 598 563 L 596 563 L 594 563 L 592 563 L 590 563 L 588 563 L 586 563 L 584 563 L 582 563 L 580 562 L 580 560 L 580 558 L 580 556 L 580 554 L 580 552 L 580 550 L 580 548 L 580 546 L 580 544 L 580 542 L 580 540 L 580 538 L 580 536 L 580 534 L 580 532 L 580 530 L 580 528 L 580 526 L 580 524 L 580 522 L 580 520 L 580 518 L 580 516 L 580 514 L 580 512 L 580 510 L 580 508 L 580 506 L 580 504 L 580 502 L 580 500 L 580 498 L 580 496 L 580 494 L 580 492 L 580 490 L 580 488 L 580 486 L 580 484 L 580 482 L 580 480 L 580 478 L 580 476 L 580 474 L 580 472 L 581 470 L 581 468 L 582 466 L 582 464 L 583 462 L 585 460 L 586 458 L 588 456 L 590 454 L 592 452 L 594 451 L 596 449 L 598 448 L 600 448 L 602 447 L 604 446 L 606 446 L 608 446 L 610 446 L 612 446 L 614 446 L 616 446 L 618 446 L 620 446 L 622 446 L 624 446 L 626 446 L 628 446 L 630 446 L 632 446 L 634 446 L 636 446 L 638 446 L 640 446 L 642 446 L 644 446 L 646 446 L 648 446 L 650 446 L 652 446 L 654 446 L 656 446 L 658 446 L 660 446 L 662 446 L 664 446 L 666 446 L 668 446 L 670 446 L 672 446 L 674 446 L 676 446 L 678 446 L 680 446 L 682 446 L 684 446 L 686 446 L 688 446 L 690 446 L 692 446 L 694 446 L 696 446 L 698 446 L 700 446 L 702 446 L 704 446 L 706 446 L 708 446 L 710 446 L 712 446 L 714 446 L 716 446 L 718 446 L 720 446 L 722 446 L 724 446 L 726 446 L 728 446 L 730 446 L 732 446 L 734 446 L 736 446 L 738 446 L 740 446 L 742 446 L 744 446 L 746 446 L 748 446 L 750 446 L 752 446 L 754 446 L 756 446 L 758 446 L 760 446 L 762 446 L 764 446 L 766 446 L 768 446 L 770 446 L 772 446 L 774 446 L 776 446 L 778 446 L 780 446 L 782 446 L 784 446 L 786 446 L 788 446 L 790 446 L 792 446 L 794 446 L 796 446 L 798 446 L 800 446 L 802 446 L 804 446 L 806 446 L 808 446 L 810 446 L 812 446 L 814 446 L 816 446 L 818 446 L 820 445 L 822 445 L 824 445 L 826 445 L 828 444 L 830 443 L 832 443 L 834 442 L 836 440 L 838 439 L 840 438 L 842 436 L 844 434 L 845 432 L 847 430 L 848 428 L 850 426 L 851 424 L 853 422 L 854 420 L 856 418 L 857 416 L 859 414 L 860 412 L 862 410 L 863 408 L 865 406 L 866 404 L 868 402 L 869 400 L 871 398 L 872 396 L 874 394 L 875 392 L 877 390 L 879 388 L 880 386 L 882 384 L 883 382 L 885 380 L 886 378 L 888 376 L 889 374 L 891 372 L 892 370 L 894 368 L 895 366 L 897 364 L 898 362 L 900 360 L 901 358 L 903 356 L 904 354 L 906 352 L 907 350 L 909 348 L 910 346 L 912 344 L 913 342 L 914 340 L 915 338 L 916 336 L 916 334 L 916 332 L 916 330 L 915 328 L 914 326 L 912 324 L 910 322 L 908 321 L 906 320 L 904 319 L 902 319 L 900 319 L 898 319 L 896 319 L 894 319 L 892 319 L 890 319 L 888 319 L 886 319 L 884 319 L 882 319 L 880 319 L 878 319 L 876 319 L 874 319 L 872 319 L 870 319 L 868 319 L 866 319 L 864 319 L 862 319 L 860 319 L 858 319 L 856 319 L 854 319 L 852 319 L 850 319 L 848 319 L 846 319 L 844 319 L 842 319 L 840 319 L 838 319 L 836 319 L 834 319 L 832 319 L 830 319 L 828 319 L 826 319 L 824 319 L 822 319 L 820 319 L 818 319 L 816 319 L 814 319 L 812 319 L 810 319 L 808 319 L 806 319 L 804 319 L 802 319 L 800 319 L 798 319 L 796 319 L 794 319 L 792 319 L 790 319 L 788 319 L 786 319 L 784 319 L 782 319 L 780 319 L 778 319 L 776 319 L 774 319 L 772 319 L 770 319 L 768 319 L 766 319 L 764 319 L 762 319 L 760 319 L 758 319 L 756 319 L 754 319 L 752 319 L 750 319 L 748 319 L 746 319 L 744 319 L 742 319 L 740 319 L 738 319 L 736 319 L 734 319 L 732 319 L 730 319 L 728 319 L 726 319 L 724 319 L 722 319 L 720 319 L 718 319 L 716 319 L 714 319 L 712 319 L 710 319 L 708 319 L 706 319 L 704 319 L 702 319 L 700 319 L 698 319 L 696 319 L 694 319 L 692 319 L 690 319 L 688 319 L 686 319 L 684 319 L 682 319 L 680 319 L 678 319 L 676 319 L 674 319 L 672 319 L 670 319 L 668 319 L 666 319 L 664 319 L 662 319 L 660 319 L 658 319 L 656 319 L 654 319 L 652 319 L 650 319 L 648 319 L 646 319 L 644 319 L 642 319 L 640 319 L 638 319 L 636 319 L 634 319 L 632 319 L 630 319 L 628 319 L 626 319 L 624 319 L 622 319 L 620 319 L 618 319 L 616 319 L 614 319 L 612 319 L 610 319 L 608 319 L 606 319 L 604 319 L 602 319 L 600 319 L 598 319 L 596 319 L 594 319 Z"/>
    <path d="M 941 428 L 939 429 L 937 429 L 935 430 L 933 430 L 931 431 L 929 432 L 927 433 L 925 434 L 923 436 L 921 438 L 920 440 L 918 442 L 916 444 L 914 446 L 912 448 L 910 450 L 908 452 L 906 454 L 904 456 L 902 458 L 900 460 L 899 462 L 898 464 L 897 466 L 896 468 L 895 470 L 895 472 L 894 474 L 894 476 L 894 478 L 894 480 L 894 482 L 894 484 L 894 486 L 894 488 L 895 490 L 896 492 L 896 494 L 897 496 L 898 498 L 900 500 L 901 502 L 903 504 L 905 506 L 907 508 L 909 510 L 911 512 L 913 514 L 915 516 L 917 518 L 919 520 L 921 522 L 923 524 L 925 526 L 927 528 L 929 530 L 931 532 L 933 534 L 935 536 L 937 538 L 939 540 L 941 542 L 943 544 L 944 546 L 946 548 L 948 549 L 949 551 L 951 553 L 953 554 L 954 555 L 955 557 L 957 559 L 959 561 L 961 563 L 963 565 L 965 567 L 967 569 L 969 571 L 971 573 L 973 575 L 975 577 L 977 579 L 979 581 L 981 583 L 983 585 L 985 587 L 987 589 L 989 591 L 991 593 L 993 595 L 995 597 L 997 599 L 999 601 L 1001 603 L 1003 605 L 1005 607 L 1007 609 L 1009 611 L 1011 613 L 1013 615 L 1015 617 L 1017 618 L 1019 620 L 1021 622 L 1023 624 L 1024 626 L 1026 628 L 1028 629 L 1030 631 L 1032 633 L 1033 635 L 1034 637 L 1034 639 L 1035 641 L 1035 643 L 1034 645 L 1034 647 L 1033 649 L 1031 651 L 1029 653 L 1027 655 L 1025 657 L 1023 659 L 1021 661 L 1019 663 L 1017 665 L 1015 667 L 1013 669 L 1011 671 L 1009 673 L 1007 675 L 1005 677 L 1003 679 L 1001 681 L 999 683 L 997 685 L 995 687 L 993 689 L 991 691 L 989 693 L 987 695 L 985 697 L 983 699 L 981 701 L 979 703 L 977 705 L 975 707 L 973 709 L 971 711 L 969 713 L 967 715 L 965 717 L 963 719 L 961 721 L 959 723 L 957 725 L 955 727 L 953 729 L 951 731 L 949 733 L 947 735 L 945 737 L 943 739 L 941 741 L 939 743 L 938 745 L 936 746 L 935 748 L 933 750 L 932 751 L 930 753 L 928 755 L 926 757 L 924 759 L 922 761 L 920 763 L 918 765 L 916 767 L 914 769 L 912 771 L 910 773 L 908 775 L 906 777 L 904 779 L 902 781 L 901 783 L 899 785 L 898 787 L 897 789 L 896 791 L 896 793 L 895 795 L 895 797 L 894 799 L 894 801 L 894 803 L 894 805 L 894 807 L 895 809 L 895 811 L 896 813 L 896 815 L 897 817 L 898 819 L 899 821 L 901 823 L 903 825 L 905 827 L 907 829 L 909 831 L 911 833 L 913 835 L 915 837 L 917 839 L 919 841 L 921 843 L 923 845 L 925 847 L 927 848 L 929 849 L 931 850 L 933 851 L 935 852 L 937 853 L 939 853 L 941 853 L 943 853 L 945 853 L 947 853 L 949 853 L 951 853 L 953 852 L 955 851 L 957 851 L 959 850 L 961 848 L 963 847 L 965 846 L 967 844 L 969 842 L 971 840 L 973 838 L 975 836 L 977 834 L 979 832 L 981 830 L 983 828 L 985 826 L 987 824 L 989 823 L 991 821 L 993 819 L 995 817 L 997 815 L 999 813 L 1001 811 L 1003 809 L 1005 807 L 1007 805 L 1009 803 L 1011 801 L 1013 799 L 1015 797 L 1017 795 L 1019 793 L 1021 791 L 1023 789 L 1025 788 L 1027 786 L 1029 784 L 1031 782 L 1033 780 L 1035 778 L 1037 776 L 1039 774 L 1041 772 L 1043 770 L 1045 768 L 1047 766 L 1049 764 L 1051 762 L 1053 760 L 1055 758 L 1057 756 L 1059 754 L 1061 752 L 1063 750 L 1065 748 L 1067 747 L 1069 745 L 1071 743 L 1073 741 L 1075 739 L 1077 737 L 1079 735 L 1081 733 L 1083 731 L 1085 729 L 1087 727 L 1089 725 L 1091 723 L 1093 721 L 1095 719 L 1097 717 L 1099 715 L 1101 713 L 1103 711 L 1105 709 L 1107 707 L 1109 705 L 1111 703 L 1112 702 L 1114 700 L 1116 699 L 1118 697 L 1120 695 L 1122 693 L 1124 691 L 1126 689 L 1128 687 L 1130 685 L 1132 683 L 1134 681 L 1136 679 L 1138 677 L 1139 675 L 1141 673 L 1142 671 L 1143 669 L 1144 667 L 1145 665 L 1146 663 L 1147 661 L 1147 659 L 1148 657 L 1148 655 L 1149 653 L 1149 651 L 1150 649 L 1150 647 L 1150 645 L 1150 643 L 1150 641 L 1150 639 L 1150 637 L 1150 635 L 1150 633 L 1149 631 L 1149 629 L 1149 627 L 1148 625 L 1148 623 L 1147 621 L 1146 619 L 1146 617 L 1145 615 L 1144 613 L 1143 611 L 1142 609 L 1140 607 L 1139 605 L 1137 603 L 1135 601 L 1133 599 L 1131 597 L 1129 595 L 1127 593 L 1125 591 L 1123 589 L 1121 587 L 1119 585 L 1117 583 L 1115 581 L 1113 579 L 1111 577 L 1109 575 L 1107 573 L 1105 571 L 1103 569 L 1101 567 L 1099 565 L 1097 564 L 1096 562 L 1094 561 L 1092 559 L 1090 557 L 1088 555 L 1086 553 L 1084 551 L 1082 549 L 1080 547 L 1078 545 L 1076 543 L 1074 541 L 1072 539 L 1070 537 L 1068 535 L 1066 533 L 1064 531 L 1062 529 L 1060 528 L 1059 526 L 1057 525 L 1055 523 L 1053 521 L 1051 519 L 1049 517 L 1047 515 L 1045 513 L 1043 511 L 1041 509 L 1039 507 L 1037 505 L 1035 503 L 1033 501 L 1031 499 L 1029 497 L 1027 496 L 1025 494 L 1023 492 L 1021 490 L 1019 488 L 1017 486 L 1015 484 L 1013 482 L 1011 480 L 1009 478 L 1007 476 L 1005 474 L 1003 472 L 1001 470 L 999 468 L 997 466 L 995 464 L 993 462 L 991 460 L 989 458 L 987 457 L 985 455 L 983 453 L 981 451 L 979 449 L 977 447 L 975 445 L 973 443 L 971 441 L 969 439 L 967 437 L 965 435 L 963 434 L 961 433 L 959 432 L 957 431 L 955 430 L 953 430 L 951 429 L 949 429 L 947 428 L 945 428 L 943 428 Z"/>
  </g>
</svg>
